# xmcd
#
# Track frame offsets:
#	150
#	4307
#	22309
#	46781
#	61654
#	78412
#	96019
#	114015
#	117600
#	138608
#	156508
#	171803
#	179006
#	198184
#	215832
#	234140
#	258758
#	281903
#	299215
#	317581
#	337415
#
# Disc length: 4708 seconds
#
# Revision: 0
# Processed by: cddbd v1.5.1PL0 Copyright (c) Steve Scherf et al.
# Submitted via: dBpowerAMP V4.0
#
DISCID=41126215
DTITLE=112 - Pleasure and Pain
DYEAR=2005
DGENRE=R&B
TTITLE0=Intro
TTITLE1=Let This Go
TTITLE2=What If
TTITLE3=U Already Know
TTITLE4=Damn
TTITLE5=Nowhere
TTITLE6=Last To Know
TTITLE7=I'm Sorry (Interlude)
TTITLE8=My Mistakes
TTITLE9=if i hit (feat. ciara and t.i) (
TTITLE10=The Way (Feat. Jermaine Dupri)
TTITLE11=We Goin' Be Alright
TTITLE12=Why Can't We Get Along
TTITLE13=That's How Close We Are
TTITLE14=Closing The Club (Feat. Three
TTITLE15=What The Hell Do You Want
TTITLE16=God Knows
TTITLE17=Do What You Gotta Do
TTITLE18=112 - it's over now
TTITLE19=The Only One
TTITLE20=Gotta Go Nowhere
EXTD=
EXTT0=
EXTT1=
EXTT2=
EXTT3=
EXTT4=
EXTT5=
EXTT6=
EXTT7=
EXTT8=
EXTT9=
EXTT10=
EXTT11=
EXTT12=
EXTT13=
EXTT14=
EXTT15=
EXTT16=
EXTT17=
EXTT18=
EXTT19=
EXTT20=
PLAYORDER=
